<?xml version="1.0" encoding="UTF-8"?><svg id="a" xmlns="http://www.w3.org/2000/svg" viewBox="0 0 368.69 66.72"><defs><style>.b{fill:#3b77f7;}</style></defs><path class="b" d="M137.71,61.4h.1s-.07,0-.1,0"/><path class="b" d="M137.61,61.39s.07,0,.1,0,.07,0,.1,0h-.2Z"/><g><rect class="b" x="283.59" y="1.35" width="12.12" height="58.85"/><polygon class="b" points="73.96 1.35 73.5 1.35 61.98 1.35 61.53 1.35 61.53 10.5 61.53 10.96 61.98 10.96 73.5 10.96 73.96 10.96 73.96 10.5 73.96 1.35"/><polyline class="b" points="73.96 16.08 73.5 16.08 61.98 16.08 61.53 16.08 61.53 16.46 61.53 60.2 61.98 60.2 73.5 60.2 73.95 60.2 73.96 16.54"/><path class="b" d="M42.16,1.35V38.59L10.67,2.71C8.98,.8,6.31,.13,3.94,1.04,1.57,1.95,0,4.24,0,6.81V60.2H12.2V23.05l31.49,35.88c1.18,1.35,2.85,2.07,4.57,2.07,.72,0,1.46-.13,2.16-.4,2.37-.91,3.94-3.2,3.94-5.76V1.35h-12.2Z"/><path class="b" d="M261.63,15.02c-2.58,0-5.1,.6-7.48,1.77-2.02,1-3.83,2.51-5.39,4.52v-5.22h-12.1V60.2h12.43v-26.3c0-1.19,.25-2.3,.74-3.3,.49-1.02,1.12-1.9,1.85-2.63,.87-.76,1.83-1.38,2.85-1.79,1.01-.41,2.24-.62,3.65-.62,1.79,0,3.23,.51,4.29,1.52,1.05,1,1.59,2.97,1.59,5.84v27.29h12.42V31.35c0-5.57-1.23-9.73-3.66-12.36-2.44-2.63-6.2-3.97-11.19-3.97"/><path class="b" d="M92.67,29.87c.42-1.06,1.01-2.01,1.76-2.82,.75-.8,1.68-1.44,2.77-1.91,1.09-.47,2.38-.7,3.85-.7,2.92,0,5.09,.78,6.45,2.31,1.3,1.47,1.99,3.54,2.06,6.15h-17.57c.09-1.08,.32-2.1,.68-3.04m16.22,16.64c-.88,3.36-3.34,4.99-7.51,4.99-3.14,0-5.51-.93-7.06-2.76-1.5-1.77-2.34-4.24-2.51-7.35h29.76v-5.06c0-6.5-1.71-11.75-5.09-15.6-3.39-3.87-8.5-5.83-15.19-5.83-3.22,0-6.21,.52-8.88,1.55-2.68,1.04-5.02,2.58-6.95,4.59-1.93,2.01-3.44,4.49-4.5,7.35-1.06,2.86-1.59,6.17-1.59,9.82,0,7.32,1.85,13.07,5.51,17.09,3.66,4.03,9.19,6.07,16.42,6.07,6,0,10.65-1.29,13.82-3.84,3.12-2.51,5.11-6.22,5.92-11.02h-12.14Z"/><path class="b" d="M183.76,42.04c-.49-1.6-1.36-3.01-2.59-4.19-1.22-1.16-2.86-2.15-4.88-2.93-2-.78-4.84-1.42-7.87-1.92l-5.43-.9c-2.38-.42-3.99-.93-4.78-1.52-.73-.54-1.09-1.41-1.09-2.64,0-.36,.11-.77,.32-1.2,.21-.42,.57-.8,1.08-1.14,.53-.35,1.28-.65,2.24-.88,.97-.24,2.23-.36,3.72-.36,2.63,0,4.54,.44,5.69,1.31,.84,.64,1.44,1.3,1.93,2.53,.12,.33,.22,.68,.3,1.06h11.32c-.02-.16-.02-.33-.04-.49-.16-1.37-.44-2.7-.85-3.96-.04-.11-.07-.21-.11-.32-.18-.48-.38-.96-.59-1.42-.45-.97-1.04-1.87-1.75-2.69-.5-.57-1.05-1.1-1.67-1.59-1.49-1.18-3.44-2.13-5.79-2.83-2.34-.69-5.26-1.05-8.68-1.05-2.77,0-5.34,.32-7.65,.96-2.32,.64-4.34,1.56-6.02,2.74-1.7,1.19-3.03,2.65-3.96,4.35-.94,1.71-1.41,3.66-1.41,5.81,0,4.19,1.35,7.37,4,9.45,2.6,2.04,6.59,3.5,11.85,4.33l6.21,.99c1.97,.31,3.31,.84,3.97,1.58,.67,.74,.99,1.59,.99,2.57,0,1.38-.5,2.34-1.54,2.94-1.1,.64-3.01,.97-5.65,.97-2.23,0-4.16-.37-5.73-1.11-1.35-.63-2.24-1.97-2.67-3.97h-12c.22,2.74,.9,5.07,2.04,6.92,1.21,1.97,2.78,3.57,4.67,4.75,1.87,1.18,4.03,2.01,6.4,2.49,2.35,.47,4.86,.71,7.45,.71,6.49,0,11.37-1.26,14.51-3.76,3.17-2.52,4.78-5.92,4.78-10.1,0-2.06-.24-3.9-.72-5.48"/><path class="b" d="M350.89,30.77c0,10.04-8.17,18.21-18.21,18.21s-18.21-8.17-18.21-18.21,8.17-18.21,18.21-18.21,18.21,8.17,18.21,18.21m7.43,17.01c3.24-4.88,5.14-10.72,5.14-17,0-16.97-13.81-30.78-30.78-30.78s-30.78,13.81-30.78,30.78,13.81,30.77,30.78,30.77c6.31,0,12.18-1.91,17.07-5.19l10.36,10.36,8.57-8.57-10.37-10.37Z"/><path class="b" d="M201.81,29.87c.42-1.06,1.01-2.01,1.76-2.82,.75-.8,1.68-1.44,2.77-1.91,1.09-.47,2.38-.7,3.85-.7,2.92,0,5.09,.78,6.45,2.31,1.3,1.47,1.99,3.54,2.06,6.15h-17.57c.09-1.08,.32-2.1,.68-3.04m16.22,16.64c-.88,3.36-3.34,4.99-7.51,4.99-3.14,0-5.51-.93-7.06-2.76-1.5-1.77-2.34-4.24-2.51-7.35h29.76v-5.06c0-6.5-1.71-11.75-5.09-15.6-3.39-3.87-8.5-5.83-15.19-5.83-3.22,0-6.21,.52-8.88,1.55-2.68,1.04-5.02,2.58-6.95,4.59-1.93,2.01-3.44,4.49-4.5,7.35-1.06,2.86-1.59,6.17-1.59,9.82,0,7.32,1.85,13.07,5.51,17.09,3.66,4.03,9.19,6.07,16.42,6.07,6,0,10.65-1.29,13.82-3.84,3.12-2.51,5.11-6.22,5.92-11.02h-12.14Z"/><path class="b" d="M127.38,1.35V50.88c0,5.78,4.57,10.46,10.23,10.52h1.89V1.35h-12.12Z"/></g></svg>